<svg xmlns="http://www.w3.org/2000/svg" width="23.22" height="20.9" viewBox="0 0 23.22 20.9">
  <g id="Сгруппировать_2" data-name="Сгруппировать 2" transform="translate(-1.84 -25.82)">
    <path id="Контур_12" data-name="Контур 12" d="M23.22,45.6V34.47l-4.84-1.85-1.85.73V43.5c-.33-.04-.65-.08-.99-.11V33.74l-1.85.73v8.82h-.24c-.25,0-.5,0-.75.01V33.8l5.65-2.24V27.94L12.8,25.82l-2.61,1.03V37.07l1.25.48v5.83c-.33.03-.66.07-.99.11V38.23L7.01,36.91l-1.23.49v7.25c-.34.13-.66.26-.99.41V37.8l-1.1.44V45.6a17.816,17.816,0,0,0-1.85,1.12,25.644,25.644,0,0,1,11.61-2.63,25.706,25.706,0,0,1,11.61,2.63A15.272,15.272,0,0,0,23.22,45.6Z" fill="#003c8c"/>
    <path id="Контур_13" data-name="Контур 13" d="M9.21,27.24l-2.05.82v7.85l2.05.79Z" fill="#003c8c"/>
  </g>
</svg>
